<svg width="360" height="202" viewBox="0 0 360 202" fill="none" xmlns="http://www.w3.org/2000/svg">
<path d="M360 0H0V202H360V0Z" fill="#E7F3FF"/>
<path fill-rule="evenodd" clip-rule="evenodd" d="M138.205 0C140.796 6.4322 144.621 12.3444 150.482 16.3171C158.108 21.4962 167.68 22.7213 176.687 23.0317C186.913 23.3834 197.385 22.5062 207.345 25.3753C217.305 28.2445 224.361 35.552 232.21 41.872C246.866 53.6703 265.648 58.4322 284.258 58.0413C294.441 57.8281 304.393 55.911 314.258 53.5244C324.996 50.9283 335.698 47.9133 346.723 46.7742C351.15 46.3197 355.573 46.3122 359.995 46.445V0H138.205Z" fill="#B6D9FE"/>
<path d="M360 161.6H0V202H360V161.6Z" fill="#062E58"/>
<circle cx="164" cy="191" r="2.75" fill="white" fill-opacity="0.55" stroke="white" stroke-width="0.5"/>
<circle cx="172" cy="191" r="2.75" fill="white" fill-opacity="0.55" stroke="white" stroke-width="0.5"/>
<circle cx="180" cy="191" r="3" fill="white"/>
<circle cx="188" cy="191" r="2.75" fill="white" fill-opacity="0.55" stroke="white" stroke-width="0.5"/>
<circle cx="196" cy="191" r="2.75" fill="white" fill-opacity="0.55" stroke="white" stroke-width="0.5"/>
<path d="M187.016 72.7106C187.055 73.2717 187.104 73.8178 187.153 74.3715C187.327 76.5826 187.613 78.7837 188.008 80.9664C188.333 82.8653 188.913 84.7118 189.733 86.4559C191.253 89.5183 193.553 92.1285 196.402 94.0253C199.254 95.9568 202.578 97.0785 206.019 97.2704C209.996 97.4574 214.192 96.4437 218.036 97.8521C219.56 98.4132 220.901 99.3353 222.315 100.123C222.744 100.362 223.177 100.59 223.627 100.789L223.877 100.899C223.894 100.905 223.911 100.913 223.927 100.921C223.978 101.337 224.019 101.75 224.053 102.167C224.068 102.354 224.366 102.322 224.368 102.146C224.368 101.791 224.368 101.438 224.347 101.084C224.784 101.252 225.225 101.41 225.673 101.548C225.71 101.599 225.763 101.636 225.824 101.655C225.884 101.673 225.949 101.672 226.009 101.651C226.217 101.713 226.427 101.771 226.637 101.827C226.897 101.899 227.159 101.966 227.424 102.029L227.612 102.075C227.572 102.208 227.531 102.341 227.495 102.478C227.489 102.505 227.489 102.534 227.495 102.562C227.49 102.611 227.505 102.661 227.536 102.7C227.568 102.738 227.613 102.763 227.663 102.768C227.713 102.774 227.763 102.759 227.802 102.727C227.84 102.696 227.865 102.651 227.87 102.601C227.912 102.485 227.955 102.371 227.994 102.255C227.999 102.31 228.021 102.362 228.056 102.404C228.092 102.446 228.139 102.477 228.192 102.492C228.245 102.507 228.302 102.505 228.354 102.488C228.406 102.47 228.452 102.437 228.485 102.393C228.515 102.36 228.544 102.322 228.574 102.285C228.604 102.285 228.632 102.298 228.662 102.302C229.237 102.42 229.815 102.524 230.39 102.62C230.747 102.68 230.859 102.085 230.514 102.004C230.075 101.901 229.633 101.802 229.192 101.703L229.065 101.675C229.357 101.301 229.645 100.927 229.929 100.553C230.09 100.497 230.254 100.444 230.419 100.396C233.606 99.44 237.03 99.8141 240.257 100.424C243.547 101.047 246.806 101.843 250.162 102.059C253.625 102.281 257.122 101.963 260.396 100.774C263.67 99.584 266.674 97.6707 270.035 96.6737C273.253 95.7161 276.694 95.6058 279.785 94.203C279.832 94.1788 279.871 94.1432 279.899 94.0996C279.928 94.056 279.945 94.0058 279.948 93.9539C279.952 93.9019 279.942 93.8499 279.92 93.8028C279.898 93.7558 279.864 93.7152 279.821 93.6849C273.263 87.9535 265.025 84.4878 256.333 83.8037C254.285 83.6246 252.222 83.6874 250.189 83.9908C248.375 84.2903 246.61 84.828 244.939 85.5899C241.534 87.1274 238.532 89.4616 235.939 92.1119C234.478 93.614 233.101 95.1949 231.814 96.8477C230.949 97.9456 230.09 99.0547 229.286 100.201C228.982 100.631 228.684 101.071 228.397 101.511L228.272 101.482C228.289 101.441 228.302 101.4 228.317 101.359C229.781 97.334 231.176 93.2697 232.28 89.1343C234.103 82.3018 234.872 74.94 232.453 68.145C231.899 66.579 231.159 65.0846 230.25 63.6935C229.227 62.1734 228.026 60.7812 226.67 59.5469C223.597 56.6852 220.252 54.1023 216.947 51.5043C216.879 51.4591 216.796 51.4423 216.716 51.4577C216.636 51.4732 216.565 51.5195 216.519 51.5866C214.728 54.9185 213.725 58.6152 213.587 62.3936C213.296 69.2167 215.55 75.8958 219.493 81.4284C221.555 84.3256 223.954 87.0582 225.364 90.3594C226.091 92.0525 226.488 93.8688 226.532 95.7105C226.545 97.4445 226.292 99.1703 225.782 100.828C225.285 100.674 224.792 100.502 224.308 100.308C224.053 97.3865 223.323 94.5261 222.146 91.8388C219.492 85.6919 214.768 80.6628 208.792 77.6203C205.619 76.0336 202.193 75.0108 198.667 74.5978C194.87 74.1133 190.931 74.0049 187.4 72.3739C187.174 72.2654 187.001 72.5123 187.016 72.7106Z" fill="#9BA348"/>
<path d="M228.311 101.374C228.021 101.759 227.749 102.163 227.492 102.567C227.487 102.617 227.501 102.667 227.533 102.705C227.564 102.744 227.61 102.769 227.66 102.774C227.709 102.779 227.759 102.765 227.798 102.733C227.837 102.702 227.862 102.656 227.867 102.607C227.908 102.491 227.951 102.377 227.99 102.261C227.996 102.316 228.017 102.367 228.053 102.41C228.088 102.452 228.135 102.483 228.189 102.498C228.242 102.513 228.298 102.511 228.35 102.494C228.403 102.476 228.449 102.443 228.482 102.399C228.512 102.365 228.54 102.328 228.57 102.291C228.6 102.291 228.628 102.304 228.658 102.307C228.832 102.105 229.009 101.906 229.189 101.709C229.337 101.544 229.487 101.38 229.64 101.215C229.894 100.94 230.15 100.671 230.415 100.405C231.143 99.673 231.91 98.98 232.712 98.3292C236.784 95.0167 241.721 92.9294 246.847 91.8876C249.658 91.3435 252.509 91.0344 255.371 90.9636C258.268 90.8608 261.161 91.0478 264.06 91.0385C264.199 91.0385 264.264 90.8159 264.11 90.7841C262.485 90.4517 260.838 90.2354 259.181 90.1369C257.545 90.0145 255.903 89.9808 254.263 90.0359C248.61 90.223 242.94 91.3452 237.847 93.8702C235.486 95.0163 233.288 96.4705 231.311 98.1945C230.598 98.8254 229.921 99.4954 229.282 100.201C229.046 100.458 228.819 100.723 228.6 100.994C228.502 101.112 228.412 101.234 228.315 101.369L228.311 101.374Z" fill="#848927"/>
<path d="M221.732 63.6391C222.354 65.0326 223.033 66.4035 223.644 67.8045C224.256 69.2054 224.807 70.6343 225.304 72.0783C227.94 79.8405 228.748 88.1044 227.664 96.2285C227.488 97.5546 227.257 98.875 226.982 100.184C226.865 100.732 226.753 101.28 226.637 101.826C226.897 101.899 227.159 101.966 227.424 102.028C227.623 101.336 227.775 100.628 227.929 99.9243C228.257 98.3906 228.504 96.842 228.679 95.2877C229.602 87.0143 228.589 78.6402 225.72 70.8232C224.782 68.2515 223.631 65.6741 222.067 63.4147C221.934 63.2183 221.642 63.4371 221.732 63.6391Z" fill="#848927"/>
<path d="M195.774 79.5579C198.836 80.9027 201.962 82.1334 204.962 83.6035C209.848 85.9938 214.524 88.9864 218.064 93.163C219.622 94.9875 220.92 97.018 221.921 99.1968C222.064 99.5035 222.191 99.8103 222.313 100.123C222.742 100.362 223.175 100.59 223.625 100.788C223.316 99.8669 222.949 98.9655 222.527 98.0895C220.325 93.4566 216.594 89.5962 212.389 86.7121C207.407 83.293 201.662 80.927 195.866 79.2848C195.848 79.2788 195.829 79.2764 195.81 79.2777C195.791 79.279 195.773 79.284 195.756 79.2924C195.739 79.3008 195.724 79.3125 195.711 79.3268C195.699 79.341 195.689 79.3576 195.683 79.3755C195.677 79.3935 195.675 79.4124 195.676 79.4313C195.677 79.4501 195.682 79.4686 195.691 79.4855C195.699 79.5024 195.711 79.5175 195.725 79.53C195.74 79.5424 195.756 79.5519 195.774 79.5579Z" fill="#848927"/>
<path d="M305.26 96.9582C305.279 97.002 305.308 97.0409 305.344 97.072C305.381 97.1031 305.424 97.1255 305.47 97.1375C305.516 97.1496 305.565 97.151 305.612 97.1416C305.659 97.1323 305.703 97.1124 305.741 97.0835C306.505 96.5224 307.27 95.9613 308.042 95.4095C309.586 94.2868 311.216 93.2862 312.917 92.4169C314.604 91.5885 316.396 90.9927 318.244 90.6457C320.046 90.3015 321.878 90.1108 323.681 89.7442C325.16 89.4378 326.609 88.9996 328.009 88.4349C333.632 86.1543 338.304 82.0225 341.246 76.7264C341.608 76.068 341.936 75.3984 342.236 74.712C342.391 74.3529 342.539 73.9894 342.679 73.6216C342.824 73.3055 342.925 72.9715 342.981 72.6284C343.114 71.0854 341.091 71.2743 340.121 71.3846C337.046 71.7362 333.956 71.4127 330.891 71.1228C327.891 70.8385 324.829 70.5616 321.833 71.0498C318.67 71.5717 315.738 73.0279 313.414 75.2301C310.948 77.5325 309.148 80.4185 307.811 83.4915C307.122 85.0964 306.525 86.7395 306.025 88.4125C305.493 90.0622 305.051 91.7392 304.701 93.4363C304.691 93.4849 304.701 93.5354 304.729 93.5766C304.729 93.6832 304.712 93.7898 304.705 93.9001C304.659 94.6962 304.758 95.4939 304.997 96.2549C305.071 96.494 305.159 96.7288 305.26 96.9582Z" fill="#9BA348"/>
<path d="M304.999 96.2604C305.322 95.0809 305.73 93.9263 306.221 92.8059C308.201 88.2836 311.416 84.4079 315.499 81.621C317.795 80.057 320.299 78.8205 322.939 77.9476C325.58 77.0667 328.352 76.5486 331.112 76.2231C331.28 76.2026 331.286 75.9276 331.112 75.9202C329.495 75.8646 327.876 75.9756 326.282 76.2512C324.708 76.5235 323.16 76.9251 321.652 77.452C316.479 79.2401 311.842 82.4833 308.527 86.8487C307.026 88.8229 305.811 90.9975 304.916 93.309C304.841 93.5054 304.768 93.7036 304.699 93.9056C304.656 94.7022 304.757 95.4999 304.999 96.2604Z" fill="#848927"/>
<path d="M290.917 188.12C290.108 188.114 289.301 188.042 288.504 187.903C288.152 187.841 287.79 187.772 287.424 187.69C277.875 185.539 265.414 176.067 265.414 176.067L268.198 165.992C268.198 165.992 291.015 167.815 297.448 170.049C297.85 170.178 298.237 170.349 298.603 170.559C298.791 170.659 298.951 170.805 299.066 170.984C300.452 173.619 300.562 188.12 290.917 188.12Z" fill="#FF684A"/>
<path d="M298.597 170.559C298.106 170.762 297.626 170.992 297.159 171.247C293.838 173.083 291.285 176.044 289.961 179.595C289.255 181.496 288.809 183.484 288.636 185.505C288.561 186.304 288.519 187.102 288.504 187.903C288.152 187.841 287.79 187.772 287.424 187.69C287.445 186.841 287.492 185.988 287.584 185.138C288.021 181.024 289.404 176.881 292.459 173.651C293.83 172.198 295.456 171.008 297.257 170.138L297.444 170.048C297.845 170.178 298.232 170.349 298.597 170.559Z" fill="#BC3B2E"/>
<path d="M221.002 184.327C221.811 184.321 222.619 184.249 223.416 184.11C223.768 184.048 224.13 183.979 224.496 183.897C234.045 181.744 246.506 172.274 246.506 172.274L243.72 162.199C243.72 162.199 220.905 164.022 214.47 166.256C214.068 166.385 213.681 166.556 213.315 166.766C213.127 166.866 212.967 167.012 212.852 167.191C211.468 169.83 211.361 184.327 221.002 184.327Z" fill="#FF684A"/>
<path d="M213.322 166.766C213.813 166.969 214.293 167.199 214.759 167.454C218.081 169.29 220.635 172.251 221.959 175.802C222.665 177.703 223.11 179.692 223.284 181.712C223.359 182.511 223.4 183.309 223.415 184.11C223.768 184.048 224.13 183.979 224.495 183.897C224.475 183.048 224.428 182.195 224.336 181.346C223.899 177.231 222.515 173.088 219.461 169.858C218.089 168.406 216.463 167.215 214.663 166.345L214.475 166.255C214.074 166.385 213.688 166.556 213.322 166.766Z" fill="#BC3B2E"/>
<path d="M217.875 104.249C217.875 104.249 238.789 72.8507 243.225 68.0027C247.661 63.1547 257.377 63.5793 257.377 63.5793C257.377 63.5793 258.011 56.4139 267.729 54.7268C277.447 53.0397 283.785 52.6208 284.629 63.5793C284.629 63.5793 297.516 62.7357 304.275 70.1106C311.034 77.4855 314.627 83.3902 320.962 100.878C327.298 118.366 330.469 125.533 326.025 133.961C321.581 142.389 272.368 166.414 272.368 166.414L244.905 165.571L210.911 146.824L217.875 104.249Z" fill="#FFC703"/>
<path d="M262.033 160.936C262.033 160.936 315.902 129.116 330.9 139.442C345.898 149.768 340.408 168.52 311.888 171.472C283.367 174.423 269.216 168.943 269.216 168.943C269.216 168.943 267.529 178.856 263.089 180.322C258.649 181.789 193.8 171.051 189.364 152.506C184.928 133.962 215.77 134.805 226.755 140.495C237.741 146.184 262.033 160.936 262.033 160.936Z" fill="#B6D9FE"/>
<path d="M275.554 63.3682C274.918 64.4212 266.681 71.5866 265.626 71.5866C264.57 71.5866 262.669 64.4212 262.669 64.4212L262.588 62.2029L262.245 52.8305L275.342 45.667C275.342 45.667 275.591 50.5861 275.717 55.247C275.824 59.158 275.844 62.8875 275.554 63.3682Z" fill="#FF9F7B"/>
<path d="M275.715 55.247C271.106 62.3395 266.036 62.9455 262.59 62.2029L262.247 52.8305L275.344 45.667C275.344 45.667 275.591 50.5861 275.715 55.247Z" fill="#D87459"/>
<path d="M243.632 83.1417C243.238 84.681 242.809 86.2072 242.43 87.7503C242.055 89.2466 241.71 90.7429 241.363 92.2504C240.662 95.2991 239.989 98.3571 239.366 101.415C238.116 107.548 236.999 113.705 236.016 119.887C235.736 121.633 235.467 123.378 235.211 125.124C234.956 126.858 234.649 128.608 234.63 130.361C234.634 130.43 234.663 130.496 234.71 130.546C234.758 130.597 234.822 130.629 234.891 130.637C234.96 130.645 235.03 130.628 235.088 130.59C235.146 130.552 235.189 130.495 235.209 130.428C235.599 128.917 235.772 127.361 236.012 125.818C236.252 124.275 236.471 122.722 236.713 121.178C237.197 118.085 237.714 114.999 238.264 111.919C239.359 105.778 240.576 99.662 241.916 93.5709C242.291 91.8632 242.666 90.1612 243.06 88.4573C243.454 86.7534 243.81 84.9989 244.222 83.2782C244.23 83.2044 244.21 83.1305 244.167 83.0702C244.123 83.01 244.06 82.9675 243.987 82.9507C243.915 82.934 243.839 82.9442 243.773 82.9793C243.708 83.0144 243.658 83.0722 243.632 83.1417Z" fill="#EA8003"/>
<path d="M284.58 63.0821C284.149 63.6937 283.877 64.3914 283.498 65.0366C283.117 65.691 282.678 66.3101 282.186 66.8864C281.089 68.117 279.827 69.1908 278.436 70.0773C276.984 71.0368 275.462 71.8841 273.954 72.7519L269.096 75.5575C267.39 76.5413 265.684 77.527 263.963 78.4827C262.706 76.7302 261.506 74.929 260.389 73.0923C259.271 71.2556 258.268 69.3647 257.777 67.2811C257.513 66.1022 257.432 64.8897 257.537 63.6862C257.557 63.4132 257.122 63.3701 257.061 63.632C256.564 65.7324 257.145 67.9843 257.968 69.9239C258.844 71.9926 260.049 73.9041 261.276 75.7782C262.012 76.9079 262.776 78.0195 263.567 79.1131C263.616 79.1889 263.692 79.2431 263.78 79.2643C263.868 79.2856 263.961 79.2723 264.039 79.2271C267.324 77.2595 270.666 75.3835 273.977 73.4758C276.937 71.7737 280.082 70.1428 282.461 67.6402C283.061 67.0219 283.598 66.3452 284.062 65.6202C284.526 64.8833 284.962 64.0753 284.972 63.1887C284.97 63.1439 284.953 63.1009 284.925 63.0659C284.897 63.0309 284.858 63.0057 284.815 62.9938C284.771 62.982 284.725 62.9842 284.683 63C284.641 63.0159 284.605 63.0446 284.58 63.0821Z" fill="#EA8003"/>
<path d="M269.839 164.43C269.464 164.112 268.931 163.912 268.492 163.682C267.487 163.154 266.477 162.632 265.455 162.14C264.941 161.894 264.429 161.65 263.914 161.411C263.666 161.295 263.419 161.179 263.164 161.072C262.909 160.966 262.616 160.902 262.342 160.803C262.204 160.754 262.13 160.966 262.249 161.035C262.483 161.173 262.693 161.346 262.937 161.475C263.18 161.604 263.383 161.701 263.606 161.811C264.054 162.032 264.5 162.256 264.945 162.483C265.856 162.945 266.769 163.405 267.675 163.878C268.117 164.11 268.559 164.344 268.999 164.579C269.186 164.678 269.46 164.766 269.561 164.967C269.662 165.167 269.582 165.479 269.548 165.702C269.477 166.169 269.384 166.632 269.27 167.091C269.124 167.56 269.013 168.04 268.939 168.526C268.918 168.743 269.224 168.776 269.314 168.621C269.599 168.176 269.724 167.615 269.844 167.108C269.963 166.606 270.056 166.098 270.122 165.586C270.187 165.154 270.212 164.738 269.839 164.43Z" fill="#E2C4B5"/>
<path d="M286.043 145.588L186.623 143.042L171.653 101C171.427 100.36 171.36 99.6743 171.458 99.0025C171.555 98.3308 171.815 97.6925 172.213 97.1424C172.612 96.5923 173.138 96.1467 173.747 95.8436C174.356 95.5406 175.03 95.3891 175.71 95.4021L227.822 96.1615H228.233C228.415 96.1641 228.596 96.1791 228.776 96.2064C229.575 96.3186 230.324 96.6565 230.936 97.1802C231.548 97.7039 231.997 98.3915 232.23 99.1616L244.86 141.121C244.86 141.121 258.923 141.4 270.499 141.774L271.393 141.804C271.899 141.819 272.402 141.838 272.893 141.855C273.195 141.866 273.497 141.875 273.797 141.89C280.211 142.117 285.206 142.371 285.441 142.614C285.938 143.136 286.029 144.78 286.043 145.588Z" fill="#20A4BF"/>
<path d="M202.599 105.25C202.999 107.006 202.637 108.581 201.791 108.77C200.946 108.959 199.939 107.687 199.541 105.932C199.144 104.178 199.506 102.599 200.349 102.412C201.193 102.225 202.2 103.493 202.599 105.25Z" fill="white"/>
<path d="M271.228 145.208C271.228 145.135 271.228 145.062 271.241 144.989C271.297 143.977 271.352 142.964 271.389 141.952V141.804L270.493 141.776L270.48 141.946C270.397 142.956 270.334 143.97 270.268 144.984C270.268 145.049 270.268 145.116 270.255 145.182L271.228 145.208Z" fill="#204CA7"/>
<path d="M273.63 145.268C273.63 145.12 273.647 144.972 273.656 144.825C273.711 143.845 273.761 142.868 273.799 141.89L272.895 141.854C272.811 142.844 272.749 143.828 272.687 144.817C272.687 144.959 272.67 145.101 272.661 145.244L273.63 145.268Z" fill="#204CA7"/>
<path d="M248.366 143.014C248.363 143.207 248.302 143.394 248.192 143.552C248.081 143.711 247.927 143.833 247.747 143.903C247.567 143.973 247.37 143.988 247.181 143.947C246.993 143.905 246.82 143.809 246.687 143.669C246.553 143.53 246.464 143.354 246.431 143.164C246.398 142.975 246.422 142.779 246.5 142.603C246.578 142.427 246.707 142.278 246.871 142.175C247.034 142.072 247.224 142.02 247.418 142.025C247.675 142.031 247.919 142.138 248.097 142.324C248.275 142.509 248.372 142.758 248.366 143.014Z" fill="#204CA7"/>
<path d="M278.863 144.067C278.861 144.186 278.823 144.302 278.755 144.399C278.687 144.497 278.591 144.572 278.48 144.615C278.369 144.658 278.248 144.668 278.132 144.642C278.015 144.617 277.909 144.557 277.827 144.471C277.744 144.385 277.689 144.277 277.669 144.16C277.648 144.043 277.663 143.922 277.711 143.813C277.759 143.705 277.839 143.613 277.939 143.549C278.04 143.485 278.157 143.453 278.276 143.456C278.355 143.457 278.433 143.475 278.505 143.506C278.577 143.538 278.642 143.583 278.697 143.64C278.751 143.697 278.794 143.764 278.823 143.837C278.851 143.911 278.865 143.989 278.863 144.067Z" fill="#204CA7"/>
<path d="M282.533 144.161C282.53 144.28 282.493 144.395 282.425 144.493C282.356 144.59 282.261 144.665 282.149 144.709C282.038 144.752 281.917 144.761 281.8 144.735C281.684 144.709 281.578 144.65 281.496 144.564C281.413 144.478 281.358 144.369 281.338 144.252C281.318 144.135 281.333 144.014 281.381 143.905C281.429 143.797 281.509 143.705 281.61 143.641C281.711 143.578 281.829 143.546 281.948 143.549C282.107 143.553 282.257 143.62 282.367 143.734C282.477 143.849 282.536 144.002 282.533 144.161Z" fill="#204CA7"/>
<path d="M243.574 144.499L242.61 144.475C242.16 142.507 241.669 140.549 241.138 138.6C239.955 134.276 238.622 129.997 237.278 125.713C235.903 121.349 234.532 116.989 233.166 112.634C231.776 108.218 230.374 103.804 229.009 99.3805C228.679 98.3087 228.371 97.222 228.002 96.1597H228.233C228.415 96.1622 228.596 96.1772 228.776 96.2046C229.223 97.4689 229.592 98.7651 230.001 100.028C232.879 108.912 235.671 117.822 238.489 126.723C239.858 131.044 241.194 135.378 242.374 139.754C242.796 141.329 243.203 142.913 243.574 144.499Z" fill="#204CA7"/>
<path d="M259.757 71.2033C259.678 71.5606 259.569 71.9084 259.502 72.2732C259.434 72.6379 259.374 72.997 259.314 73.3617C259.206 74.0912 259.103 74.8212 259.005 75.5519C258.811 76.9921 258.624 78.4329 258.443 79.8744C258.285 81.135 258.134 82.3975 257.991 83.6619C257.834 83.5883 257.668 83.5348 257.498 83.5029C257.432 83.4878 257.364 83.4918 257.302 83.5143C257.239 83.5369 257.184 83.5771 257.143 83.6301C257.103 83.6831 257.079 83.7472 257.075 83.8139C257.071 83.8806 257.088 83.9469 257.123 84.0041C257.265 84.192 257.432 84.3588 257.621 84.4998C257.479 84.5166 257.334 84.5372 257.19 84.5615C256.95 84.6026 256.654 84.627 256.481 84.8177C256.437 84.8648 256.404 84.9211 256.385 84.9827C256.365 85.0442 256.36 85.1094 256.369 85.1732C256.379 85.2371 256.402 85.298 256.439 85.3514C256.475 85.4048 256.523 85.4494 256.579 85.4817C256.794 85.6108 257.079 85.5565 257.318 85.5397C257.473 85.5304 257.629 85.5173 257.783 85.506C257.753 85.7941 257.721 86.084 257.694 86.372C257.633 87.0641 257.507 87.8085 257.634 88.4968C257.649 88.5423 257.677 88.5827 257.714 88.613C257.751 88.6434 257.796 88.6623 257.844 88.6676C257.892 88.673 257.94 88.6645 257.983 88.6431C258.026 88.6217 258.062 88.5885 258.086 88.5473C258.347 87.9001 258.392 87.1538 258.484 86.4637C258.529 86.1289 258.568 85.7941 258.608 85.4574C258.795 85.4574 258.983 85.4424 259.181 85.4387C259.295 85.4359 259.405 85.3963 259.494 85.3258C259.584 85.2553 259.647 85.1577 259.676 85.0478C259.702 84.937 259.691 84.8211 259.646 84.7166C259.601 84.6121 259.525 84.5244 259.427 84.4661C259.209 84.3333 258.99 84.2005 258.769 84.0715C258.931 82.6999 259.098 81.3233 259.268 79.9417C259.448 78.499 259.635 77.0582 259.83 75.6193C259.928 74.8861 260.023 74.1535 260.115 73.4216C260.209 72.6996 260.237 71.9851 260.286 71.2632C260.31 70.9602 259.823 70.9078 259.757 71.2033Z" fill="white"/>
<path d="M274.875 85.2422C274.815 85.1256 274.729 85.0242 274.624 84.9458C274.519 84.8673 274.397 84.8139 274.268 84.7896C274.103 84.7541 273.937 84.7297 273.769 84.7167C273.733 83.8133 273.698 82.908 273.671 82.0046C273.608 79.6592 273.579 77.3138 273.561 74.9683C273.549 73.6385 273.508 72.3086 273.486 70.9788C273.486 70.6047 272.85 70.5879 272.826 70.9638C272.546 75.5182 272.599 80.0782 272.781 84.6344H272.546C272.284 84.6344 271.973 84.7223 271.926 85.029C271.915 85.1074 271.93 85.1871 271.968 85.2567C272.005 85.3262 272.064 85.3821 272.136 85.4162C272.169 85.4365 272.206 85.4487 272.244 85.4517C272.183 85.4305 272.172 85.4305 272.211 85.4517C272.238 85.4643 272.266 85.4749 272.295 85.4835C272.408 85.5247 272.528 85.5583 272.644 85.5901C272.702 85.607 272.762 85.6182 272.82 85.6313C272.82 85.6986 272.82 85.7641 272.82 85.8295L272.798 85.8426C272.732 85.8688 272.674 85.9098 272.627 85.9623L272.601 85.9792C272.533 86.0328 272.478 86.1013 272.441 86.1793C272.424 86.2148 272.428 86.2148 272.441 86.1793C272.419 86.2108 272.4 86.244 272.383 86.2784C272.35 86.355 272.348 86.4414 272.378 86.5193C272.408 86.5972 272.467 86.6604 272.543 86.6955L272.612 86.7198C272.706 86.7479 272.638 86.7329 272.623 86.7198C272.693 86.7519 272.769 86.7703 272.846 86.7741H272.858C272.894 87.5191 272.992 88.2599 273.152 88.9886C273.227 89.3084 273.739 89.3926 273.782 89.0054C273.862 88.1674 273.876 87.3244 273.825 86.4842C273.943 86.4337 274.061 86.3813 274.178 86.3271C274.386 86.2504 274.577 86.1334 274.74 85.9829C274.832 85.886 274.894 85.7643 274.918 85.6327C274.942 85.5011 274.927 85.3654 274.875 85.2422Z" fill="white"/>
<path d="M266.15 110.045C266.51 112.695 269.762 134.594 269.762 134.594L276.257 134.764V134.805L277.024 134.784L277.789 134.805V134.764L284.285 134.594C284.285 134.594 287.535 112.695 287.897 110.045H266.15Z" fill="#F8ECE5"/>
<path d="M287.625 108.222C287.494 108.034 284.71 107.617 284.71 107.617C284.71 107.617 283.076 104.355 282.722 104.124C282.409 103.918 271.532 103.918 271.221 104.124C270.866 104.355 269.231 107.617 269.231 107.617C269.231 107.617 266.449 108.036 266.316 108.222C266.316 108.222 265.123 110.279 265.609 110.597C266.014 110.87 287.921 110.87 288.332 110.597C288.808 110.271 287.625 108.222 287.625 108.222Z" fill="#9E3C14"/>
<path d="M268.582 17.8508C268.582 17.8508 262.667 14.2672 254.64 19.5342C246.613 24.8011 248.09 34.0744 255.274 33.6536L276.609 46.2973L279.144 43.5572C279.144 43.5572 284.207 34.918 283.159 25.4352C282.11 15.9524 269.216 16.1638 268.582 17.8508Z" fill="#9E3C14"/>
<path d="M254.437 30.7042C254.437 30.7042 249.789 56.6238 261.831 57.6787C273.872 58.7336 276.407 44.3991 276.407 44.3991C276.407 44.3991 275.139 39.7624 276.407 35.3371C276.407 35.3371 266.479 39.1302 267.112 29.6475C267.103 29.6512 256.541 33.8651 254.437 30.7042Z" fill="#FF9F7B"/>
<path d="M275.475 43.5068C275.475 43.5068 278.771 39.0665 280.339 42.6184C281.906 46.1702 276.574 50.4328 274.221 48.3024C271.868 46.1721 275.475 43.5068 275.475 43.5068Z" fill="#FF9F7B"/>
<path d="M263.194 47.5428C262.808 47.5652 262.421 47.5914 262.029 47.6176C261.716 47.64 261.249 47.6961 260.985 47.481C260.488 47.0789 261.039 45.9324 261.173 45.476C261.431 44.6406 261.687 43.8039 261.939 42.966C262.198 42.1 262.408 41.2415 262.599 40.3605C262.646 40.1436 262.311 39.9865 262.224 40.2072C261.422 42.164 260.739 44.1677 260.181 46.2073C259.993 46.9125 259.967 47.7971 260.704 48.1993C261.079 48.4069 261.559 48.4144 261.981 48.3863C262.222 48.3746 262.461 48.3382 262.695 48.2778C262.919 48.2148 263.131 48.1177 263.325 47.9898C263.367 47.9599 263.398 47.918 263.415 47.8696C263.431 47.8213 263.433 47.769 263.418 47.7199C263.404 47.6709 263.374 47.6275 263.334 47.5957C263.294 47.564 263.245 47.5455 263.194 47.5428Z" fill="#D87459"/>
<path d="M278.25 44.4495C278.359 44.3448 278.437 44.2232 278.554 44.1166C278.698 43.9726 278.54 43.6677 278.334 43.7575C278.18 43.8136 278.03 43.8831 277.888 43.9651C277.75 44.0556 277.619 44.1549 277.494 44.2625C277.26 44.469 277.045 44.6969 276.853 44.9433C276.655 45.1954 276.48 45.4653 276.332 45.7494C276.247 45.9033 276.176 46.0641 276.12 46.2301C276.049 46.3967 276.033 46.5814 276.075 46.7575C276.087 46.7938 276.107 46.827 276.134 46.8547C276.16 46.8823 276.192 46.9039 276.228 46.9178C276.264 46.9317 276.302 46.9376 276.341 46.9352C276.379 46.9327 276.416 46.9218 276.45 46.9034C276.579 46.807 276.68 46.6779 276.742 46.5294C276.812 46.4022 276.872 46.2712 276.93 46.1422C276.988 46.0131 277.052 45.9177 277.117 45.8074L277.565 45.7531C277.717 45.7406 277.868 45.7188 278.017 45.6877C278.081 45.6727 278.141 45.6447 278.205 45.6297C278.279 45.6072 278.351 45.5791 278.42 45.5455C278.445 45.5375 278.466 45.5222 278.481 45.5018C278.496 45.4814 278.504 45.4568 278.505 45.4314C278.504 45.4057 278.496 45.3808 278.48 45.3605C278.464 45.3403 278.442 45.3258 278.417 45.3192C278.34 45.3053 278.263 45.2959 278.186 45.2912C278.152 45.2912 278.119 45.2912 278.085 45.2912C278.051 45.2912 278.019 45.2799 277.985 45.2799C277.841 45.284 277.698 45.3003 277.556 45.3286L277.421 45.3473C277.576 45.1387 277.745 44.9412 277.927 44.7562C278.044 44.6552 278.143 44.5486 278.25 44.4495Z" fill="#D87459"/>
<path d="M261.722 51.1923C261.232 51.095 260.647 50.8967 260.349 50.474C260.31 50.4156 260.251 50.373 260.183 50.3535C260.115 50.334 260.043 50.3391 259.978 50.3676C259.914 50.3962 259.862 50.4466 259.831 50.5098C259.8 50.573 259.792 50.6452 259.809 50.7134C259.929 51.4055 260.692 51.7889 261.309 51.9535C261.914 52.1051 262.545 52.1204 263.156 51.9981C263.768 51.8758 264.344 51.619 264.844 51.2465C265.112 51.0505 265.349 50.8139 265.545 50.5451C265.71 50.3057 265.897 49.984 265.82 49.6791C265.801 49.6147 265.757 49.5605 265.697 49.5283C265.638 49.4961 265.568 49.4884 265.504 49.5071C265.265 49.5968 265.114 49.8306 264.941 50.0083C264.789 50.1729 264.628 50.3284 264.457 50.474C264.067 50.7878 263.614 51.0142 263.128 51.138" fill="#D87459"/>
<path d="M259.146 39.6613C259.146 40.1457 258.894 40.5385 258.583 40.5385C258.272 40.5385 258.021 40.1457 258.021 39.6613C258.021 39.1769 258.274 38.7822 258.583 38.7822C258.892 38.7822 259.146 39.1769 259.146 39.6613Z" fill="black"/>
<path d="M269.286 40.4002C269.286 40.8846 269.034 41.2792 268.723 41.2792C268.412 41.2792 268.161 40.8846 268.161 40.4002C268.161 39.9157 268.414 39.5229 268.723 39.5229C269.033 39.5229 269.286 39.9139 269.286 40.4002Z" fill="black"/>
<path d="M260.625 36.2853C260.625 36.6931 260.25 36.5322 259.217 36.5322C258.184 36.5322 256.892 36.6931 256.892 36.2853C256.892 35.8776 258.045 35.1968 259.076 35.1968C260.108 35.1968 260.625 35.8813 260.625 36.2853Z" fill="#772A10"/>
<path d="M267.343 37.1644C267.274 37.5647 267.673 37.4693 268.689 37.6432C269.706 37.8172 270.952 38.1931 271.022 37.791C271.091 37.3889 270.069 36.5248 269.053 36.3508C268.037 36.1769 267.412 36.7623 267.343 37.1644Z" fill="#772A10"/>
<path d="M259.903 28.7811C258.714 29.0111 257.514 29.4413 256.29 29.2019C255.32 29.0149 254.398 28.4089 254.227 27.3802C254.177 27.1345 254.185 26.8806 254.25 26.6384C254.315 26.3962 254.436 26.1725 254.602 25.9849C254.745 25.8352 254.645 25.5042 254.415 25.5378C253.61 25.6538 253.558 24.5391 253.684 24.0079C253.764 23.6883 253.903 23.3864 254.094 23.1176C254.3 22.8518 254.531 22.6068 254.784 22.3863C254.805 22.3642 254.818 22.336 254.821 22.3059C254.825 22.2757 254.818 22.2454 254.802 22.2195C254.786 22.1935 254.762 22.1735 254.734 22.1624C254.706 22.1513 254.675 22.1498 254.645 22.1581C253.82 22.3676 253.269 23.2934 253.145 24.079C253.051 24.5381 253.109 25.0152 253.31 25.4387C253.449 25.6964 253.676 25.8956 253.95 25.9998C253.485 26.8265 253.657 27.9319 254.27 28.6576C255.092 29.6302 256.475 29.8939 257.683 29.7424C258.094 29.6894 258.501 29.6069 258.9 29.4956C259.292 29.3797 259.674 29.2334 260.044 29.0579C260.205 28.9906 260.062 28.7493 259.903 28.7811Z" fill="#772A10"/>
<path d="M270.602 26.8306C270.322 26.9794 270.051 27.1423 269.788 27.3188C269.525 27.48 269.233 27.591 268.929 27.6461C268.653 27.6812 268.372 27.6544 268.108 27.5677C267.843 27.481 267.601 27.3365 267.399 27.1449C266.55 26.3612 266.475 25.0239 266.976 24.0326C267.251 23.4786 267.689 23.0217 268.232 22.7233C268.504 22.5755 268.296 22.2052 268.026 22.2576C267.637 22.3324 267.041 22.4446 266.835 21.992C266.647 21.6067 266.82 21.1129 266.976 20.7501C267.359 19.8782 268.066 19.188 268.948 18.8236C268.977 18.8151 269.001 18.7956 269.016 18.7693C269.03 18.743 269.033 18.7121 269.025 18.6833C269.017 18.6545 268.997 18.6303 268.971 18.6159C268.944 18.6015 268.913 18.5982 268.884 18.6066C268.019 18.8286 267.269 19.3683 266.784 20.1179C266.353 20.765 265.924 21.9527 266.649 22.5606C266.82 22.7001 267.027 22.7878 267.246 22.8131C266.881 23.1559 266.595 23.5723 266.405 24.0346C266.215 24.4968 266.126 24.9941 266.145 25.4933C266.214 26.8662 267.234 28.1923 268.702 28.181C269.105 28.1677 269.498 28.0593 269.85 27.8649C270.224 27.682 270.559 27.4278 270.836 27.1168C270.866 27.0836 270.883 27.0408 270.884 26.9963C270.885 26.9517 270.87 26.9083 270.842 26.8738C270.813 26.8393 270.774 26.8159 270.73 26.808C270.686 26.8001 270.64 26.8081 270.602 26.8306Z" fill="#772A10"/>
<path d="M276.675 28.77C276.657 28.7423 276.631 28.721 276.6 28.7092C276.57 28.6974 276.536 28.6958 276.504 28.7045C276.392 28.7627 276.289 28.8378 276.199 28.9271C276.111 28.9903 276.01 29.0343 275.904 29.0562C275.792 29.0782 275.676 29.0671 275.571 29.0244C275.455 28.9733 275.352 28.8966 275.271 28.7999C274.852 28.3024 275.027 27.5505 275.321 27.0399C275.377 26.9408 275.229 26.8229 275.154 26.9165C274.931 27.171 274.763 27.4682 274.659 27.7899C274.566 28.1009 274.576 28.4337 274.689 28.7382C274.796 29.0379 275.009 29.2886 275.287 29.4433C275.554 29.5787 275.863 29.6035 276.148 29.5125C276.424 29.4227 276.844 29.1048 276.675 28.77Z" fill="#772A10"/>
<path d="M287.119 137.227C287.119 137.227 283.104 138.537 276.557 137.809C270.009 137.082 266.576 134.068 266.944 133.225C267.268 132.488 272.833 134.124 276.068 134.055C276.481 134.055 276.892 134.005 277.294 133.907C277.294 133.907 276.458 133.72 275.246 133.358H275.235C273.283 132.755 270.373 131.646 268.423 129.959C267.111 128.818 266.261 127.182 265.811 125.607C265.723 125.302 265.652 125.001 265.594 124.707C265.367 123.585 265.348 122.538 265.498 121.821C265.534 121.638 265.591 121.46 265.671 121.292C265.736 121.131 265.847 120.994 265.991 120.897C267.154 120.215 273.913 122.955 277.401 123.798C280.888 124.642 286.538 125.061 286.538 125.061C286.538 125.061 286.221 130.178 287.119 137.227Z" fill="#FF9F7B"/>
<path d="M279.255 128.12C277.96 128.131 276.67 127.973 275.417 127.649C273.189 127.121 271.06 126.236 269.115 125.031C268.161 124.464 267.277 123.79 266.479 123.02C266.109 122.659 265.78 122.258 265.5 121.825C265.535 121.642 265.593 121.464 265.673 121.295C265.785 121.466 265.905 121.63 266.027 121.785C266.383 122.234 266.782 122.646 267.219 123.016C268.041 123.713 268.926 124.333 269.863 124.866C270.811 125.419 271.802 125.897 272.826 126.295C273.862 126.693 274.928 127.01 276.013 127.243C277.097 127.475 278.197 127.599 279.296 127.739C279.523 127.763 279.465 128.107 279.255 128.12Z" fill="#D87459"/>
<path d="M279.782 131.74C279.443 131.767 279.102 131.75 278.767 131.689C278.456 131.65 278.141 131.605 277.83 131.553C277.199 131.448 276.574 131.314 275.955 131.152C273.726 130.579 271.594 129.684 269.625 128.494C268.25 127.675 266.97 126.705 265.809 125.605C265.721 125.3 265.65 124.999 265.592 124.705C266.201 125.287 266.826 125.848 267.489 126.37C269.251 127.765 271.206 128.899 273.292 129.736C274.338 130.154 275.414 130.494 276.51 130.754C277.052 130.885 277.599 130.994 278.151 131.081C278.436 131.126 278.713 131.162 279.006 131.205C279.283 131.226 279.557 131.271 279.827 131.339C279.869 131.357 279.904 131.387 279.928 131.426C279.951 131.465 279.961 131.511 279.956 131.556C279.95 131.602 279.931 131.644 279.899 131.677C279.868 131.71 279.827 131.732 279.782 131.74Z" fill="#D87459"/>
<path d="M280.249 134.439C279.759 134.513 279.261 134.513 278.771 134.439C278.291 134.394 277.811 134.336 277.335 134.268C276.911 134.207 276.487 134.137 276.069 134.057C276.482 134.057 276.894 134.007 277.296 133.909C277.296 133.909 276.459 133.722 275.248 133.359C276.062 133.543 276.883 133.69 277.712 133.801C278.124 133.855 278.533 133.898 278.949 133.937C279.385 133.953 279.819 134.012 280.243 134.113C280.393 134.158 280.423 134.403 280.249 134.439Z" fill="#D87459"/>
<path d="M315.049 114.532C313.247 115.522 311.385 116.396 309.473 117.151C307.536 117.899 305.558 118.535 303.561 119.111C302.612 119.384 301.659 119.642 300.707 119.893C300.471 118.288 299.957 116.713 299.539 115.146C299.096 113.453 298.664 111.759 298.241 110.062C297.394 106.626 296.614 103.171 295.961 99.6944C295.309 96.2174 294.797 92.7198 294.488 89.1979C294.204 85.9752 294.028 82.7152 294.3 79.485C294.587 76.1184 295.367 72.6058 297.184 69.7161C297.319 69.501 296.996 69.3289 296.844 69.5291C295.956 70.763 295.233 72.1081 294.696 73.5298C294.176 74.9768 293.815 76.4755 293.618 78C293.166 81.1796 293.261 84.4209 293.481 87.6137C293.972 94.7454 295.367 101.793 297.054 108.73C297.531 110.692 298.033 112.647 298.554 114.599C298.804 115.553 299.058 116.506 299.316 117.457C299.531 118.337 299.797 119.204 300.111 120.053C297.221 120.802 294.321 121.516 291.471 122.404C290.49 122.711 289.519 123.042 288.561 123.411C287.747 123.725 286.873 124.047 286.354 124.791C286.106 125.184 285.966 125.636 285.949 126.1C285.896 126.691 285.885 127.288 285.874 127.881C285.853 129.057 285.902 130.232 285.988 131.407C286.074 132.581 286.209 133.763 286.395 134.934C286.547 135.892 286.571 137.115 287.546 137.62C288.484 138.106 289.598 138.368 290.634 138.57C291.739 138.781 292.862 138.903 293.981 139.006C298.815 139.471 303.675 139.596 308.526 139.38C309.126 139.35 309.72 139.273 310.318 139.221C310.35 139.221 310.38 139.209 310.402 139.186C310.424 139.164 310.436 139.134 310.436 139.103C310.436 139.072 310.424 139.042 310.402 139.02C310.38 138.998 310.35 138.985 310.318 138.985C305.648 139.03 300.96 138.985 296.301 138.622C294.079 138.45 291.831 138.26 289.674 137.674C289.128 137.532 288.593 137.351 288.073 137.132C287.856 137.059 287.662 136.93 287.511 136.758C287.384 136.549 287.303 136.316 287.274 136.073C287.046 134.932 286.884 133.774 286.768 132.617C286.652 131.459 286.599 130.316 286.596 129.162C286.596 128.601 286.596 128.031 286.618 127.466C286.614 126.925 286.65 126.385 286.725 125.85C286.898 124.914 287.76 124.54 288.566 124.256C289.504 123.921 290.477 123.626 291.439 123.334C295.288 122.165 299.222 121.301 303.098 120.227C305.006 119.698 306.906 119.105 308.754 118.394C310.603 117.684 312.433 116.857 314.1 115.776C314.513 115.509 314.916 115.23 315.311 114.938C315.357 114.9 315.388 114.847 315.397 114.788C315.406 114.729 315.394 114.669 315.361 114.618C315.329 114.568 315.279 114.532 315.221 114.516C315.164 114.5 315.102 114.506 315.049 114.532Z" fill="#EA8003"/>
<path d="M334.311 31.3678L337.566 24.5278L336.169 31.97L342.832 28.3434L337.316 33.5468L344.844 34.5194L337.316 35.4938L342.832 40.6972L336.169 37.0705L337.566 44.5127L334.311 37.6728L331.056 44.5127L332.454 37.0705L325.789 40.6972L331.305 35.4938L323.777 34.5194L331.305 33.5468L325.789 28.3434L332.454 31.97L331.056 24.5278L334.311 31.3678Z" fill="#FFC703"/>
<path d="M194.681 35.9393L197.812 29.3574L196.468 36.5172L202.879 33.029L197.572 38.0341L204.816 38.9711L197.572 39.9082L202.879 44.9133L196.468 41.4251L197.812 48.5848L194.681 42.003L191.55 48.5848L192.894 41.4251L186.482 44.9133L191.79 39.9082L184.547 38.9711L191.79 38.0341L186.482 33.029L192.894 36.5172L191.55 29.3574L194.681 35.9393Z" fill="#FF684A"/>
<path d="M351.049 58.019C351.049 58.2636 350.976 58.5027 350.84 58.7061C350.703 58.9094 350.51 59.0679 350.283 59.1614C350.056 59.2549 349.807 59.2793 349.567 59.2315C349.326 59.1836 349.105 59.0657 348.932 58.8926C348.759 58.7195 348.641 58.499 348.593 58.2591C348.546 58.0191 348.571 57.7705 348.665 57.5446C348.759 57.3187 348.918 57.1258 349.122 56.9902C349.326 56.8545 349.566 56.7823 349.811 56.7827C350.139 56.7832 350.454 56.9137 350.686 57.1455C350.918 57.3773 351.049 57.6915 351.049 58.019Z" fill="#C7CCF4"/>
<path d="M175.313 13.8257C175.313 14.0702 175.24 14.3092 175.104 14.5125C174.968 14.7158 174.774 14.8743 174.548 14.9679C174.321 15.0615 174.072 15.0859 173.832 15.0382C173.591 14.9905 173.37 14.8728 173.197 14.6999C173.024 14.527 172.906 14.3067 172.858 14.0669C172.81 13.827 172.835 13.5785 172.928 13.3526C173.022 13.1266 173.181 12.9336 173.385 12.7977C173.589 12.6619 173.828 12.5894 174.073 12.5894C174.236 12.5891 174.397 12.6209 174.548 12.683C174.698 12.745 174.835 12.8361 174.95 12.9509C175.065 13.0658 175.157 13.2022 175.219 13.3523C175.281 13.5024 175.313 13.6632 175.313 13.8257Z" fill="#C7CCF4"/>
<path d="M175.406 66.4561C175.407 66.7008 175.334 66.9401 175.198 67.1437C175.062 67.3473 174.869 67.506 174.642 67.5998C174.416 67.6937 174.166 67.7183 173.926 67.6706C173.685 67.623 173.464 67.5052 173.291 67.3322C173.117 67.1592 172.999 66.9387 172.951 66.6987C172.904 66.4587 172.928 66.21 173.022 65.984C173.116 65.758 173.276 65.565 173.48 65.4293C173.684 65.2936 173.924 65.2213 174.169 65.2217C174.497 65.2217 174.812 65.3517 175.044 65.5832C175.276 65.8147 175.406 66.1287 175.406 66.4561Z" fill="#C7CCF4"/>
<path d="M309.452 49.5478C309.452 49.7924 309.379 50.0315 309.243 50.2349C309.107 50.4382 308.913 50.5967 308.686 50.6902C308.46 50.7837 308.21 50.8081 307.97 50.7603C307.73 50.7124 307.509 50.5945 307.335 50.4214C307.162 50.2483 307.044 50.0278 306.997 49.7879C306.949 49.5479 306.974 49.2993 307.068 49.0734C307.162 48.8476 307.321 48.6546 307.525 48.519C307.729 48.3834 307.969 48.3112 308.214 48.3115C308.377 48.3113 308.538 48.3431 308.689 48.4052C308.839 48.4672 308.976 48.5583 309.091 48.6732C309.206 48.7881 309.297 48.9245 309.359 49.0746C309.421 49.2247 309.452 49.3855 309.452 49.5478Z" fill="#FEBAC9"/>
<path d="M228.737 17.8974C229.421 17.8974 229.976 17.3439 229.976 16.6611C229.976 15.9783 229.421 15.4248 228.737 15.4248C228.052 15.4248 227.498 15.9783 227.498 16.6611C227.498 17.3439 228.052 17.8974 228.737 17.8974Z" fill="#FEBAC9"/>
<path d="M151.534 31.9702C151.534 32.2147 151.461 32.4537 151.325 32.6571C151.189 32.8604 150.995 33.0188 150.769 33.1124C150.542 33.206 150.293 33.2305 150.053 33.1828C149.812 33.1351 149.592 33.0173 149.418 32.8444C149.245 32.6715 149.127 32.4512 149.079 32.2114C149.031 31.9716 149.056 31.723 149.15 31.4971C149.243 31.2712 149.402 31.0781 149.606 30.9422C149.81 30.8064 150.049 30.7339 150.295 30.7339C150.457 30.7339 150.618 30.7659 150.769 30.828C150.919 30.8901 151.056 30.9812 151.171 31.096C151.286 31.2108 151.377 31.3471 151.44 31.4971C151.502 31.6471 151.534 31.8078 151.534 31.9702Z" fill="#FEBAC9"/>
<path d="M349.268 86.2617L353.897 87.4625L350.379 92.1964L349.268 86.2617Z" fill="#FF684A"/>
<path d="M306.358 17.6899L307.673 22.2798L301.798 21.6589L306.358 17.6899Z" fill="#C7CCF4"/>
<path d="M87.3288 178.658C88.2385 178.657 89.1279 178.926 89.8845 179.43C90.6412 179.934 91.231 180.65 91.5794 181.489C91.9278 182.327 92.0191 183.25 91.8419 184.14C91.6646 185.03 91.2267 185.847 90.5835 186.489C89.9404 187.131 89.1209 187.568 88.2286 187.745C87.3364 187.923 86.4115 187.832 85.571 187.485C84.7304 187.138 84.012 186.549 83.5065 185.795C83.0011 185.04 82.7313 184.153 82.7313 183.246C82.7322 182.03 83.2169 180.863 84.0788 180.003C84.9407 179.143 86.1096 178.659 87.3288 178.658ZM87.3288 177.93C86.2748 177.93 85.2446 178.242 84.3683 178.826C83.492 179.41 82.809 180.24 82.4056 181.212C82.0023 182.183 81.8968 183.252 82.1024 184.283C82.308 185.314 82.8155 186.261 83.5608 187.004C84.306 187.748 85.2555 188.254 86.2892 188.459C87.3228 188.664 88.3943 188.559 89.368 188.157C90.3417 187.754 91.1739 187.073 91.7595 186.199C92.345 185.325 92.6575 184.297 92.6575 183.246C92.6578 182.548 92.5201 181.856 92.2524 181.211C91.9847 180.566 91.5922 179.98 91.0973 179.487C90.6024 178.993 90.0149 178.601 89.3683 178.334C88.7216 178.067 88.0286 177.93 87.3288 177.93Z" fill="white"/>
<path fill-rule="evenodd" clip-rule="evenodd" d="M86.3575 184.821C86.0973 184.814 85.8455 184.727 85.637 184.571C85.4285 184.416 85.2734 184.2 85.1932 183.953C85.371 183.986 85.5541 183.981 85.7294 183.936H85.7482C85.5804 183.901 85.4215 183.832 85.2816 183.733C85.1416 183.634 85.0234 183.508 84.9344 183.362C84.8084 183.163 84.7432 182.933 84.7469 182.698C84.9198 182.792 85.1125 182.844 85.3094 182.849C85.0486 182.67 84.8646 182.4 84.7938 182.092C84.7218 181.784 84.7701 181.46 84.9288 181.187C85.2442 181.572 85.6369 181.888 86.0819 182.114C86.5269 182.339 87.0142 182.469 87.5125 182.496C87.5125 182.445 87.4975 182.402 87.4919 182.359C87.4607 182.101 87.5108 181.84 87.6354 181.612C87.7599 181.384 87.9526 181.2 88.1868 181.086C88.4209 180.972 88.6848 180.934 88.9417 180.977C89.1986 181.02 89.4357 181.141 89.62 181.325C89.6283 181.334 89.639 181.341 89.6509 181.345C89.6628 181.348 89.6755 181.349 89.6875 181.346C89.9414 181.286 90.1843 181.187 90.4075 181.052H90.4244C90.3309 181.334 90.1411 181.575 89.8882 181.733C90.1289 181.706 90.3641 181.643 90.5857 181.546C90.5369 181.609 90.49 181.673 90.4413 181.733C90.3087 181.896 90.1556 182.041 89.9857 182.165C89.9788 182.169 89.9733 182.174 89.9696 182.181C89.9659 182.188 89.9644 182.196 89.965 182.204C89.9732 182.391 89.965 182.579 89.9407 182.765C89.8937 183.15 89.7848 183.525 89.6182 183.876C89.4497 184.24 89.2209 184.574 88.9413 184.862C88.4768 185.346 87.8771 185.68 87.22 185.819C86.9906 185.868 86.7571 185.896 86.5225 185.902C85.8215 185.919 85.1309 185.729 84.5388 185.354L84.5088 185.335C85.1694 185.412 85.8337 185.226 86.3575 184.817V184.821Z" fill="white"/>
<path d="M104.074 178.658C104.984 178.658 105.873 178.927 106.63 179.431C107.386 179.935 107.975 180.652 108.324 181.49C108.672 182.328 108.763 183.251 108.585 184.141C108.408 185.031 107.97 185.848 107.327 186.49C106.683 187.132 105.864 187.569 104.972 187.746C104.079 187.923 103.155 187.832 102.314 187.485C101.474 187.137 100.755 186.549 100.25 185.795C99.7447 185.04 99.4749 184.153 99.4749 183.246C99.4759 182.029 99.9608 180.863 100.823 180.003C101.685 179.142 102.855 178.659 104.074 178.658ZM104.074 177.93C103.02 177.93 101.99 178.241 101.113 178.825C100.237 179.409 99.5534 180.239 99.1498 181.21C98.7462 182.182 98.6404 183.25 98.8458 184.282C99.0512 185.313 99.5586 186.26 100.304 187.004C101.049 187.747 101.998 188.254 103.032 188.459C104.066 188.664 105.137 188.559 106.111 188.157C107.085 187.755 107.917 187.073 108.503 186.199C109.089 185.325 109.401 184.297 109.401 183.246C109.401 182.548 109.264 181.857 108.996 181.212C108.729 180.567 108.336 179.981 107.842 179.487C107.347 178.994 106.76 178.602 106.113 178.335C105.467 178.068 104.774 177.93 104.074 177.93Z" fill="white"/>
<path d="M106.907 181.854C106.879 181.489 106.717 181.147 106.452 180.893C106.17 180.631 105.802 180.481 105.417 180.474C104.753 180.438 103.178 180.414 102.625 180.506C102.333 180.54 102.06 180.663 101.841 180.859C101.622 181.054 101.47 181.312 101.404 181.598C101.269 182.077 101.295 184.286 101.374 184.759C101.409 185.055 101.537 185.333 101.738 185.553C101.94 185.773 102.206 185.925 102.499 185.986C102.944 186.102 105.124 186.087 105.623 186.006C105.921 185.972 106.201 185.846 106.422 185.644C106.644 185.443 106.797 185.177 106.859 184.884C106.995 184.39 106.95 182.297 106.907 181.854ZM106.388 184.66C106.364 184.885 106.26 185.094 106.096 185.25C105.931 185.406 105.716 185.498 105.49 185.511C105.034 185.559 103.002 185.587 102.58 185.469C102.395 185.425 102.228 185.325 102.102 185.183C101.977 185.041 101.898 184.863 101.877 184.675C101.805 183.729 101.805 182.779 101.877 181.833C101.901 181.61 102.005 181.401 102.168 181.246C102.332 181.091 102.546 180.999 102.771 180.986C103.696 180.925 104.624 180.929 105.548 180.997C105.774 181.022 105.983 181.125 106.139 181.29C106.296 181.454 106.388 181.669 106.399 181.895C106.459 182.818 106.455 183.745 106.386 184.667L106.388 184.66ZM104.138 181.805C103.852 181.805 103.572 181.889 103.333 182.048C103.095 182.206 102.909 182.432 102.799 182.696C102.689 182.959 102.661 183.25 102.716 183.53C102.772 183.81 102.91 184.068 103.112 184.27C103.314 184.472 103.572 184.61 103.853 184.665C104.134 184.721 104.425 184.693 104.69 184.584C104.954 184.474 105.18 184.289 105.34 184.052C105.499 183.814 105.584 183.535 105.584 183.249C105.582 182.867 105.427 182.501 105.155 182.231C104.883 181.962 104.514 181.811 104.13 181.813L104.138 181.805ZM104.129 184.181C103.943 184.181 103.761 184.126 103.607 184.022C103.452 183.919 103.332 183.772 103.261 183.601C103.191 183.429 103.173 183.241 103.21 183.059C103.247 182.877 103.338 182.711 103.47 182.58C103.602 182.45 103.77 182.362 103.953 182.327C104.135 182.292 104.324 182.312 104.495 182.385C104.666 182.457 104.812 182.579 104.914 182.734C105.015 182.89 105.068 183.071 105.066 183.257C105.066 183.38 105.041 183.502 104.993 183.615C104.945 183.729 104.875 183.832 104.788 183.918C104.7 184.005 104.596 184.073 104.481 184.12C104.367 184.166 104.245 184.189 104.121 184.188L104.129 184.181ZM105.981 181.749C105.981 181.839 105.945 181.925 105.882 181.989C105.818 182.052 105.732 182.088 105.642 182.088C105.552 182.088 105.465 182.052 105.402 181.989C105.338 181.925 105.302 181.839 105.302 181.749C105.302 181.66 105.338 181.573 105.402 181.51C105.465 181.446 105.552 181.411 105.642 181.411C105.732 181.411 105.818 181.446 105.882 181.51C105.945 181.573 105.981 181.66 105.981 181.749Z" fill="#8392DD"/>
<path d="M106.907 181.854C106.879 181.489 106.717 181.147 106.452 180.893C106.17 180.631 105.802 180.481 105.417 180.474C104.753 180.438 103.178 180.414 102.625 180.506C102.333 180.54 102.06 180.663 101.841 180.859C101.622 181.054 101.47 181.312 101.404 181.598C101.269 182.077 101.295 184.286 101.374 184.759C101.409 185.055 101.537 185.333 101.738 185.553C101.94 185.773 102.206 185.925 102.499 185.986C102.944 186.102 105.124 186.087 105.623 186.006C105.921 185.972 106.201 185.846 106.422 185.644C106.644 185.443 106.797 185.177 106.859 184.884C106.995 184.39 106.95 182.297 106.907 181.854ZM106.388 184.66C106.364 184.885 106.26 185.094 106.096 185.25C105.931 185.406 105.716 185.498 105.49 185.511C105.034 185.559 103.002 185.587 102.58 185.469C102.395 185.425 102.228 185.325 102.102 185.183C101.977 185.041 101.898 184.863 101.877 184.675C101.805 183.729 101.805 182.779 101.877 181.833C101.901 181.61 102.005 181.401 102.168 181.246C102.332 181.091 102.546 180.999 102.771 180.986C103.696 180.925 104.624 180.929 105.548 180.997C105.774 181.022 105.983 181.125 106.139 181.29C106.296 181.454 106.388 181.669 106.399 181.895C106.459 182.818 106.455 183.745 106.386 184.667L106.388 184.66ZM104.138 181.805C103.852 181.805 103.572 181.889 103.333 182.048C103.095 182.206 102.909 182.432 102.799 182.696C102.689 182.959 102.661 183.25 102.716 183.53C102.772 183.81 102.91 184.068 103.112 184.27C103.314 184.472 103.572 184.61 103.853 184.665C104.134 184.721 104.425 184.693 104.69 184.584C104.954 184.474 105.18 184.289 105.34 184.052C105.499 183.814 105.584 183.535 105.584 183.249C105.582 182.867 105.427 182.501 105.155 182.231C104.883 181.962 104.514 181.811 104.13 181.813L104.138 181.805ZM104.129 184.181C103.943 184.181 103.761 184.126 103.607 184.022C103.452 183.919 103.332 183.772 103.261 183.601C103.191 183.429 103.173 183.241 103.21 183.059C103.247 182.877 103.338 182.711 103.47 182.58C103.602 182.45 103.77 182.362 103.953 182.327C104.135 182.292 104.324 182.312 104.495 182.385C104.666 182.457 104.812 182.579 104.914 182.734C105.015 182.89 105.068 183.071 105.066 183.257C105.066 183.38 105.041 183.502 104.993 183.615C104.945 183.729 104.875 183.832 104.788 183.918C104.7 184.005 104.596 184.073 104.481 184.12C104.367 184.166 104.245 184.189 104.121 184.188L104.129 184.181ZM105.981 181.749C105.981 181.839 105.945 181.925 105.882 181.989C105.818 182.052 105.732 182.088 105.642 182.088C105.552 182.088 105.465 182.052 105.402 181.989C105.338 181.925 105.302 181.839 105.302 181.749C105.302 181.66 105.338 181.573 105.402 181.51C105.465 181.446 105.552 181.411 105.642 181.411C105.732 181.411 105.818 181.446 105.882 181.51C105.945 181.573 105.981 181.66 105.981 181.749Z" fill="white"/>
<path d="M120.985 178.764C121.895 178.764 122.784 179.033 123.541 179.537C124.298 180.041 124.887 180.757 125.236 181.596C125.584 182.434 125.675 183.357 125.498 184.247C125.321 185.137 124.882 185.955 124.239 186.596C123.596 187.238 122.776 187.675 121.884 187.852C120.991 188.029 120.066 187.938 119.226 187.591C118.385 187.243 117.667 186.655 117.162 185.9C116.657 185.145 116.387 184.258 116.388 183.35C116.389 182.135 116.875 180.969 117.736 180.11C118.598 179.25 119.766 178.766 120.985 178.764ZM120.985 178.037C119.931 178.037 118.901 178.348 118.024 178.933C117.148 179.517 116.465 180.347 116.062 181.318C115.658 182.29 115.553 183.359 115.759 184.39C115.965 185.421 116.472 186.368 117.218 187.112C117.963 187.855 118.913 188.361 119.947 188.566C120.98 188.771 122.052 188.665 123.026 188.263C123.999 187.86 124.831 187.178 125.417 186.304C126.002 185.43 126.314 184.402 126.314 183.35C126.314 182.652 126.176 181.961 125.908 181.316C125.64 180.672 125.248 180.086 124.753 179.592C124.258 179.099 123.671 178.708 123.024 178.441C122.378 178.174 121.685 178.036 120.985 178.037Z" fill="white"/>
<path fill-rule="evenodd" clip-rule="evenodd" d="M120.595 184.563C120.595 184.579 120.583 184.594 120.58 184.609C120.357 185.487 120.33 185.681 120.102 186.089C119.99 186.285 119.865 186.472 119.727 186.65C119.71 186.671 119.697 186.695 119.665 186.689C119.633 186.684 119.629 186.652 119.625 186.624C119.586 186.358 119.569 186.09 119.577 185.821C119.588 185.472 119.631 185.35 120.085 183.452C120.089 183.424 120.085 183.396 120.073 183.371C119.961 183.088 119.949 182.775 120.04 182.485C120.244 181.836 120.977 181.787 121.108 182.32C121.189 182.651 120.979 183.085 120.818 183.725C120.685 184.252 121.307 184.628 121.84 184.243C122.331 183.887 122.52 183.035 122.485 182.432C122.414 181.228 121.092 180.968 120.252 181.355C119.29 181.8 119.07 182.99 119.502 183.532C119.556 183.601 119.599 183.644 119.58 183.719C119.552 183.829 119.528 183.938 119.498 184.046C119.494 184.064 119.486 184.081 119.475 184.096C119.463 184.11 119.448 184.121 119.431 184.129C119.414 184.136 119.396 184.14 119.378 184.139C119.359 184.138 119.341 184.132 119.325 184.123C119.168 184.059 119.03 183.956 118.924 183.824C118.549 183.367 118.45 182.466 118.937 181.703C119.477 180.857 120.482 180.515 121.401 180.62C122.496 180.743 123.19 181.491 123.319 182.339C123.379 182.724 123.336 183.676 122.792 184.349C122.168 185.122 121.153 185.174 120.687 184.699C120.662 184.649 120.634 184.606 120.595 184.563Z" fill="white"/>
<path d="M137.562 178.764C138.472 178.763 139.362 179.031 140.119 179.534C140.877 180.037 141.467 180.753 141.817 181.592C142.166 182.43 142.258 183.353 142.081 184.243C141.904 185.134 141.467 185.952 140.824 186.594C140.181 187.237 139.361 187.674 138.468 187.852C137.576 188.029 136.651 187.938 135.81 187.591C134.969 187.244 134.25 186.655 133.745 185.901C133.239 185.146 132.97 184.258 132.97 183.35C132.972 182.134 133.456 180.969 134.318 180.109C135.18 179.249 136.349 178.766 137.568 178.764M137.568 178.037C136.514 178.037 135.483 178.348 134.607 178.933C133.73 179.517 133.047 180.347 132.644 181.318C132.241 182.29 132.136 183.359 132.341 184.39C132.547 185.421 133.055 186.368 133.8 187.112C134.546 187.855 135.495 188.361 136.529 188.566C137.563 188.771 138.634 188.665 139.608 188.263C140.582 187.86 141.414 187.178 141.999 186.304C142.584 185.43 142.897 184.402 142.896 183.35C142.896 182.652 142.758 181.961 142.491 181.316C142.223 180.672 141.83 180.086 141.335 179.592C140.841 179.099 140.253 178.708 139.607 178.441C138.96 178.174 138.267 178.036 137.568 178.037Z" fill="white"/>
<path fill-rule="evenodd" clip-rule="evenodd" d="M134.75 186.173C134.783 186.046 134.811 185.935 134.841 185.825C134.937 185.472 135.029 185.118 135.13 184.765C135.144 184.707 135.137 184.647 135.111 184.594C134.78 183.979 134.68 183.266 134.83 182.584C134.98 181.902 135.369 181.296 135.928 180.876C136.487 180.456 137.178 180.249 137.877 180.292C138.575 180.336 139.235 180.628 139.737 181.115C140.238 181.602 140.548 182.252 140.611 182.947C140.674 183.643 140.486 184.338 140.079 184.906C139.673 185.475 139.076 185.88 138.397 186.048C137.718 186.216 137 186.135 136.375 185.821C136.316 185.795 136.25 185.788 136.188 185.803C135.421 185.997 134.905 186.143 134.75 186.173ZM135.43 185.503C135.723 185.427 135.993 185.359 136.257 185.285C136.29 185.274 136.325 185.272 136.36 185.277C136.394 185.282 136.427 185.295 136.456 185.314C136.942 185.604 137.517 185.713 138.076 185.619C138.587 185.539 139.06 185.297 139.425 184.931C139.79 184.564 140.028 184.091 140.105 183.58C140.182 183.069 140.094 182.547 139.854 182.09C139.614 181.632 139.234 181.262 138.769 181.035C138.304 180.807 137.778 180.733 137.268 180.824C136.758 180.914 136.291 181.164 135.933 181.538C135.575 181.911 135.346 182.389 135.278 182.901C135.211 183.413 135.309 183.934 135.558 184.387C135.603 184.454 135.631 184.532 135.641 184.612C135.65 184.693 135.64 184.775 135.612 184.851C135.539 185.056 135.494 185.27 135.43 185.503Z" fill="white"/>
<path fill-rule="evenodd" clip-rule="evenodd" d="M138.455 184.606C137.892 184.585 136.973 184.134 136.351 183.055C136.236 182.883 136.187 182.675 136.212 182.469C136.237 182.264 136.334 182.074 136.486 181.933C136.539 181.894 136.601 181.868 136.666 181.858C136.732 181.848 136.799 181.855 136.861 181.877C136.893 181.877 136.926 181.929 136.941 181.965C137.024 182.152 137.106 182.339 137.18 182.535C137.217 182.636 137.146 182.733 136.992 182.909C136.969 182.93 136.955 182.958 136.951 182.989C136.948 183.02 136.956 183.05 136.973 183.076C137.201 183.473 137.559 183.78 137.988 183.945C138.014 183.958 138.044 183.961 138.072 183.953C138.1 183.946 138.125 183.928 138.141 183.904C138.376 183.62 138.4 183.53 138.516 183.596C139.109 183.876 139.154 183.889 139.158 183.955C139.159 184.045 139.141 184.135 139.106 184.218C139.07 184.301 139.018 184.375 138.951 184.437C138.885 184.498 138.807 184.545 138.721 184.574C138.635 184.603 138.545 184.614 138.455 184.606Z" fill="white"/>
</svg>
